<svg width="20" height="20" viewBox="0 0 20 20" fill="none" xmlns="http://www.w3.org/2000/svg">
<path d="M10 20C8.61667 20 7.31667 19.7373 6.1 19.212C4.88334 18.6867 3.825 17.9743 2.925 17.075C2.025 16.1757 1.31267 15.1173 0.788001 13.9C0.263335 12.6827 0.000667932 11.3827 1.26582e-06 10C-0.000665401 8.61733 0.262001 7.31733 0.788001 6.1C1.314 4.88267 2.02633 3.82433 2.925 2.925C3.82367 2.02567 4.882 1.31333 6.1 0.788C7.318 0.262667 8.618 0 10 0C11.382 0 12.682 0.262667 13.9 0.788C15.118 1.31333 16.1763 2.02567 17.075 2.925C17.9737 3.82433 18.6863 4.88267 19.213 6.1C19.7397 7.31733 20.002 8.61733 20 10C19.998 11.3827 19.7353 12.6827 19.212 13.9C18.6887 15.1173 17.9763 16.1757 17.075 17.075C16.1737 17.9743 15.1153 18.687 13.9 19.213C12.6847 19.739 11.3847 20.0013 10 20ZM8 15H11C11.55 15 12.021 14.8043 12.413 14.413C12.805 14.0217 13.0007 13.5507 13 13V11.5C13 11.0667 12.8583 10.7083 12.575 10.425C12.2917 10.1417 11.9333 10 11.5 10C11.9333 10 12.2917 9.85833 12.575 9.575C12.8583 9.29167 13 8.93333 13 8.5V7C13 6.45 12.8043 5.97933 12.413 5.588C12.0217 5.19667 11.5507 5.00067 11 5H8C7.71667 5 7.47933 5.096 7.288 5.288C7.09667 5.48 7.00067 5.71733 7 6C6.99933 6.28267 7.09533 6.52033 7.288 6.713C7.48067 6.90567 7.718 7.00133 8 7H11V9H10C9.71667 9 9.47933 9.096 9.288 9.288C9.09667 9.48 9.00067 9.71733 9 10C8.99933 10.2827 9.09533 10.5203 9.288 10.713C9.48067 10.9057 9.718 11.0013 10 11H11V13H8C7.71667 13 7.47933 13.096 7.288 13.288C7.09667 13.48 7.00067 13.7173 7 14C6.99933 14.2827 7.09533 14.5203 7.288 14.713C7.48067 14.9057 7.718 15.0013 8 15Z" fill="black"/>
</svg>
