<svg width="20" height="20" viewBox="0 0 20 20" fill="none" xmlns="http://www.w3.org/2000/svg">
<path d="M10 20C8.61667 20 7.31667 19.7373 6.1 19.212C4.88334 18.6867 3.825 17.9743 2.925 17.075C2.025 16.1757 1.31267 15.1173 0.788001 13.9C0.263335 12.6827 0.000667932 11.3827 1.26582e-06 10C-0.000665401 8.61733 0.262001 7.31733 0.788001 6.1C1.314 4.88267 2.02633 3.82433 2.925 2.925C3.82367 2.02567 4.882 1.31333 6.1 0.788C7.318 0.262667 8.618 0 10 0C11.382 0 12.682 0.262667 13.9 0.788C15.118 1.31333 16.1763 2.02567 17.075 2.925C17.9737 3.82433 18.6863 4.88267 19.213 6.1C19.7397 7.31733 20.002 8.61733 20 10C19.998 11.3827 19.7353 12.6827 19.212 13.9C18.6887 15.1173 17.9763 16.1757 17.075 17.075C16.1737 17.9743 15.1153 18.687 13.9 19.213C12.6847 19.739 11.3847 20.0013 10 20ZM11 11V14C11 14.2833 11.096 14.521 11.288 14.713C11.48 14.905 11.7173 15.0007 12 15C12.2827 14.9993 12.5203 14.9033 12.713 14.712C12.9057 14.5207 13.0013 14.2833 13 14V6C13 5.71667 12.904 5.47933 12.712 5.288C12.52 5.09667 12.2827 5.00067 12 5C11.7173 4.99933 11.48 5.09533 11.288 5.288C11.096 5.48067 11 5.718 11 6V9H9V6C9 5.71667 8.904 5.47933 8.712 5.288C8.52 5.09667 8.28267 5.00067 8 5C7.71733 4.99933 7.48 5.09533 7.288 5.288C7.096 5.48067 7 5.718 7 6V10C7 10.2833 7.096 10.521 7.288 10.713C7.48 10.905 7.71733 11.0007 8 11H11Z" fill="black"/>
</svg>
