<svg width="29" height="41" viewBox="0 0 29 41" fill="none" xmlns="http://www.w3.org/2000/svg">
<path d="M8.43278 36.8333H20.6828V40.9166H8.43278V36.8333ZM24.5742 23.9953C26.6771 21.5331 28.8494 18.9871 28.8494 14.375C28.8494 6.49619 22.4366 0.083313 14.5578 0.083313C6.67899 0.083313 0.266113 6.49619 0.266113 14.375C0.266113 19.0402 2.44457 21.578 4.55566 24.0321C5.28657 24.8855 6.04403 25.7695 6.76882 26.7863C7.06282 27.2069 7.54466 28.8198 7.97545 30.7083H6.39111V34.7916H22.7244V30.7083H21.1442C21.5791 28.8157 22.0629 27.1987 22.3549 26.7781C23.0736 25.7511 23.8372 24.8589 24.5742 23.9953ZM19.0127 24.4302C18.1266 25.6899 17.3875 28.6666 16.9588 30.7083H12.1588C11.7321 28.6626 10.991 25.6797 10.0947 24.42C9.32743 23.368 8.51264 22.3516 7.65286 21.3738C5.66428 19.0586 4.34945 17.5273 4.34945 14.375C4.34945 8.7461 8.92891 4.16665 14.5578 4.16665C20.1867 4.16665 24.7661 8.7461 24.7661 14.375C24.7661 17.4804 23.4533 19.0177 21.4688 21.3432C20.7073 22.2374 19.8437 23.2481 19.0127 24.4302Z" fill="white"/>
</svg>
