<svg width="18" height="18" viewBox="0 0 18 18" fill="none" xmlns="http://www.w3.org/2000/svg">
<path d="M16.6312 17.405C14.6856 17.405 12.7633 16.981 10.8644 16.133C8.9655 15.2851 7.23781 14.0825 5.68133 12.5254C4.12485 10.9683 2.92262 9.24063 2.07465 7.34235C1.22668 5.44406 0.80238 3.52181 0.801758 1.57558C0.801758 1.29542 0.895147 1.06195 1.08192 0.875168C1.2687 0.68839 1.50217 0.595001 1.78234 0.595001H5.56459C5.7825 0.595001 5.97706 0.66909 6.14827 0.817267C6.31949 0.965444 6.42066 1.14039 6.45179 1.34211L7.05881 4.61072C7.08994 4.85976 7.08216 5.06989 7.03547 5.2411C6.98877 5.41231 6.90317 5.56018 6.77865 5.6847L4.51397 7.97272C4.82526 8.54862 5.19477 9.10491 5.62249 9.64158C6.05021 10.1783 6.52121 10.6959 7.03547 11.1946C7.51798 11.6772 8.02383 12.1248 8.55304 12.5376C9.08224 12.9504 9.64257 13.3276 10.234 13.6694L12.4287 11.4748C12.5688 11.3347 12.7518 11.2298 12.9778 11.1601C13.2038 11.0904 13.4254 11.0707 13.6427 11.1013L16.8646 11.755C17.0826 11.8172 17.2616 11.9302 17.4016 12.094C17.5417 12.2577 17.6118 12.4404 17.6118 12.6422V16.4244C17.6118 16.7046 17.5184 16.9381 17.3316 17.1248C17.1448 17.3116 16.9113 17.405 16.6312 17.405Z" fill="white" fill-opacity="0.99"/>
</svg>
