<svg width="15" height="21" viewBox="0 0 15 21" fill="none" xmlns="http://www.w3.org/2000/svg">
<path d="M7.9161 10.3789C7.25148 10.3789 6.61408 10.1149 6.14412 9.64494C5.67416 9.17498 5.41014 8.53758 5.41014 7.87296C5.41014 7.20834 5.67416 6.57094 6.14412 6.10098C6.61408 5.63102 7.25148 5.367 7.9161 5.367C8.58072 5.367 9.21812 5.63102 9.68808 6.10098C10.158 6.57094 10.4221 7.20834 10.4221 7.87296C10.4221 8.20205 10.3572 8.52792 10.2313 8.83195C10.1054 9.13599 9.92078 9.41224 9.68808 9.64494C9.45538 9.87764 9.17913 10.0622 8.87509 10.1882C8.57105 10.3141 8.24519 10.3789 7.9161 10.3789ZM7.9161 0.856277C6.05516 0.856277 4.27044 1.59553 2.95455 2.91142C1.63867 4.2273 0.899414 6.01202 0.899414 7.87296C0.899414 13.1355 7.9161 20.9039 7.9161 20.9039C7.9161 20.9039 14.9328 13.1355 14.9328 7.87296C14.9328 6.01202 14.1935 4.2273 12.8776 2.91142C11.5618 1.59553 9.77704 0.856277 7.9161 0.856277Z" fill="white"/>
</svg>
