<svg width="22" height="18" viewBox="0 0 22 18" fill="none" xmlns="http://www.w3.org/2000/svg">
<path d="M2.33317 17.6667C1.73734 17.6667 1.22745 17.4547 0.803504 17.0307C0.37956 16.6068 0.167226 16.0966 0.166504 15.5V2.49999C0.166504 1.90416 0.378837 1.39427 0.803504 0.970328C1.22817 0.546384 1.73806 0.33405 2.33317 0.333328H19.6665C20.2623 0.333328 20.7726 0.545661 21.1973 0.970328C21.6219 1.39499 21.8339 1.90488 21.8332 2.49999V15.5C21.8332 16.0958 21.6212 16.6061 21.1973 17.0307C20.7733 17.4554 20.2631 17.6674 19.6665 17.6667H2.33317ZM10.9998 10.0833L19.6665 4.66666V2.49999L10.9998 7.91666L2.33317 2.49999V4.66666L10.9998 10.0833Z" fill="white"/>
</svg>
