<svg width="21" height="21" viewBox="0 0 21 21" fill="none" xmlns="http://www.w3.org/2000/svg">
<path d="M10.1719 20.3148C8.76878 20.3148 7.45018 20.0483 6.2161 19.5155C4.98202 18.9826 3.90855 18.2601 2.99567 17.3479C2.08279 16.4357 1.36026 15.3622 0.828086 14.1275C0.295912 12.8927 0.0294861 11.5741 0.0288099 10.1717C0.0281337 8.76921 0.294559 7.45061 0.828086 6.21586C1.36161 4.9811 2.08414 3.90762 2.99567 2.99542C3.90719 2.08322 4.98067 1.36069 6.2161 0.827841C7.45153 0.29499 8.77013 0.0285645 10.1719 0.0285645C11.5737 0.0285645 12.8923 0.29499 14.1277 0.827841C15.3631 1.36069 16.4366 2.08322 17.3482 2.99542C18.2597 3.90762 18.9825 4.9811 19.5168 6.21586C20.051 7.45061 20.317 8.76921 20.315 10.1717C20.313 11.5741 20.0466 12.8927 19.5157 14.1275C18.9849 15.3622 18.2624 16.4357 17.3482 17.3479C16.4339 18.2601 15.3604 18.983 14.1277 19.5165C12.895 20.05 11.5764 20.3161 10.1719 20.3148ZM9.66476 7.12874V14.2289C9.66476 14.5163 9.76213 14.7574 9.95688 14.9521C10.1516 15.1469 10.3924 15.2439 10.6791 15.2432C10.9658 15.2425 11.2068 15.1452 11.4023 14.9511C11.5977 14.757 11.6947 14.5163 11.6934 14.2289V6.11443C11.6934 5.82704 11.596 5.58631 11.4013 5.39224C11.2065 5.19816 10.9658 5.10079 10.6791 5.10011H8.65045C8.36306 5.10011 8.12233 5.19749 7.92826 5.39224C7.73419 5.58698 7.63681 5.82771 7.63614 6.11443C7.63546 6.40114 7.73283 6.6422 7.92826 6.83763C8.12368 7.03305 8.36441 7.13009 8.65045 7.12874H9.66476Z" fill="black"/>
</svg>
