<svg width="23" height="26" viewBox="0 0 23 26" fill="none" xmlns="http://www.w3.org/2000/svg">
<path d="M7 12C5.67392 12 4.40215 11.4732 3.46447 10.5355C2.52678 9.59785 2 8.32608 2 7V3C2 2.73478 2.10536 2.48043 2.29289 2.29289C2.48043 2.10536 2.73478 2 3 2H4C4.26522 2 4.51957 1.89464 4.70711 1.70711C4.89464 1.51957 5 1.26522 5 1C5 0.734784 4.89464 0.48043 4.70711 0.292893C4.51957 0.105357 4.26522 0 4 0H3C2.20435 0 1.44129 0.316071 0.87868 0.87868C0.316071 1.44129 0 2.20435 0 3V7C0.00128542 8.12974 0.276772 9.24228 0.8028 10.2421C1.32883 11.2419 2.08968 12.0991 3.02 12.74C3.91473 13.5273 4.64022 14.4881 5.15247 15.5642C5.66472 16.6402 5.95306 17.8091 6 19C6 20.8565 6.7375 22.637 8.05025 23.9497C9.36301 25.2625 11.1435 26 13 26C14.8565 26 16.637 25.2625 17.9497 23.9497C19.2625 22.637 20 20.8565 20 19V17.86C20.9427 17.6166 21.7642 17.0378 22.3106 16.232C22.857 15.4262 23.0908 14.4488 22.9681 13.483C22.8454 12.5172 22.3747 11.6293 21.6442 10.9857C20.9137 10.3421 19.9736 9.98702 19 9.98702C18.0264 9.98702 17.0863 10.3421 16.3558 10.9857C15.6253 11.6293 15.1546 12.5172 15.0319 13.483C14.9092 14.4488 15.143 15.4262 15.6894 16.232C16.2358 17.0378 17.0573 17.6166 18 17.86V19C18 20.3261 17.4732 21.5979 16.5355 22.5355C15.5979 23.4732 14.3261 24 13 24C11.6739 24 10.4021 23.4732 9.46447 22.5355C8.52678 21.5979 8 20.3261 8 19C8.04947 17.8077 8.34093 16.6379 8.85666 15.5617C9.37239 14.4855 10.1016 13.5255 11 12.74C11.9266 12.0968 12.6836 11.2387 13.2061 10.239C13.7285 9.23936 14.001 8.12796 14 7V3C14 2.20435 13.6839 1.44129 13.1213 0.87868C12.5587 0.316071 11.7956 0 11 0H10C9.73478 0 9.48043 0.105357 9.29289 0.292893C9.10536 0.48043 9 0.734784 9 1C9 1.26522 9.10536 1.51957 9.29289 1.70711C9.48043 1.89464 9.73478 2 10 2H11C11.2652 2 11.5196 2.10536 11.7071 2.29289C11.8946 2.48043 12 2.73478 12 3V7C12 7.65661 11.8707 8.30679 11.6194 8.91342C11.3681 9.52004 10.9998 10.0712 10.5355 10.5355C10.0712 10.9998 9.52004 11.3681 8.91342 11.6194C8.30679 11.8707 7.65661 12 7 12ZM19 16C18.4696 16 17.9609 15.7893 17.5858 15.4142C17.2107 15.0391 17 14.5304 17 14C17 13.4696 17.2107 12.9609 17.5858 12.5858C17.9609 12.2107 18.4696 12 19 12C19.5304 12 20.0391 12.2107 20.4142 12.5858C20.7893 12.9609 21 13.4696 21 14C21 14.5304 20.7893 15.0391 20.4142 15.4142C20.0391 15.7893 19.5304 16 19 16Z" fill="white"/>
</svg>
