<svg width="21" height="21" viewBox="0 0 21 21" fill="none" xmlns="http://www.w3.org/2000/svg">
<path d="M10.3462 20.3148C8.9431 20.3148 7.6245 20.0483 6.39042 19.5155C5.15634 18.9826 4.08286 18.2601 3.16998 17.3479C2.2571 16.4357 1.53458 15.3622 1.0024 14.1275C0.470228 12.8927 0.203802 11.5741 0.203126 10.1717C0.20245 8.76921 0.468876 7.45061 1.0024 6.21586C1.53593 4.9811 2.25846 3.90762 3.16998 2.99542C4.08151 2.08322 5.15499 1.36069 6.39042 0.827841C7.62585 0.29499 8.94445 0.0285645 10.3462 0.0285645C11.748 0.0285645 13.0666 0.29499 14.302 0.827841C15.5375 1.36069 16.6109 2.08322 17.5225 2.99542C18.434 3.90762 19.1569 4.9811 19.6911 6.21586C20.2253 7.45061 20.4914 8.76921 20.4893 10.1717C20.4873 11.5741 20.2209 12.8927 19.6901 14.1275C19.1592 15.3622 18.4367 16.4357 17.5225 17.3479C16.6082 18.2601 15.5348 18.983 14.302 19.5165C13.0693 20.05 11.7507 20.3161 10.3462 20.3148ZM12.3748 15.2432C12.6622 15.2432 12.9033 15.1458 13.0981 14.9511C13.2928 14.7563 13.3898 14.5156 13.3892 14.2289C13.3885 13.9422 13.2911 13.7015 13.097 13.5067C12.903 13.312 12.6622 13.2146 12.3748 13.2146H9.33192V11.186H11.3605C11.9184 11.186 12.3961 10.9875 12.7938 10.5906C13.1914 10.1936 13.3898 9.7159 13.3892 9.15736V7.12874C13.3892 6.57086 13.1907 6.09346 12.7938 5.69653C12.3968 5.2996 11.9191 5.10079 11.3605 5.10011H8.31761C8.03022 5.10011 7.78949 5.19749 7.59542 5.39224C7.40135 5.58698 7.30397 5.82771 7.3033 6.11443C7.30262 6.40114 7.39999 6.6422 7.59542 6.83763C7.79084 7.03305 8.03157 7.13009 8.31761 7.12874H11.3605V9.15736H9.33192C8.77405 9.15736 8.29665 9.35616 7.89971 9.75377C7.50278 10.1514 7.30397 10.6288 7.3033 11.186V14.2289C7.3033 14.5163 7.40067 14.7574 7.59542 14.9521C7.79017 15.1469 8.0309 15.2439 8.31761 15.2432H12.3748Z" fill="black"/>
</svg>
